<mxfile host="app.diagrams.net" agent="Mozilla/5.0 (Windows NT 10.0; Win64; x64) AppleWebKit/537.36 (KHTML, like Gecko) Chrome/127.0.0.0 Safari/537.36" version="24.7.7">
  <diagram name="Page-1" id="OcTNQJEHIB_H8qVpvJLd">
    <mxGraphModel dx="1050" dy="625" grid="1" gridSize="10" guides="1" tooltips="1" connect="1" arrows="1" fold="1" page="1" pageScale="1" pageWidth="850" pageHeight="1100" math="0" shadow="0">
      <root>
        <mxCell id="0" />
        <mxCell id="1" parent="0" />
        <mxCell id="f_wLszosIwucmYi2b6Wq-27" value="" style="rounded=0;whiteSpace=wrap;html=1;" parent="1" vertex="1">
          <mxGeometry x="246" y="156.5" width="180" height="340" as="geometry" />
        </mxCell>
        <mxCell id="f_wLszosIwucmYi2b6Wq-22" value="" style="rounded=0;whiteSpace=wrap;html=1;" parent="1" vertex="1">
          <mxGeometry x="45" y="156.5" width="180" height="340" as="geometry" />
        </mxCell>
        <mxCell id="f_wLszosIwucmYi2b6Wq-18" style="edgeStyle=orthogonalEdgeStyle;rounded=0;orthogonalLoop=1;jettySize=auto;html=1;entryX=0.5;entryY=0;entryDx=0;entryDy=0;entryPerimeter=0;" parent="1" source="f_wLszosIwucmYi2b6Wq-2" target="f_wLszosIwucmYi2b6Wq-21" edge="1">
          <mxGeometry relative="1" as="geometry" />
        </mxCell>
        <mxCell id="f_wLszosIwucmYi2b6Wq-2" value="&lt;font style=&quot;font-size: 16px;&quot;&gt;pizza_events&lt;/font&gt;" style="ellipse;whiteSpace=wrap;html=1;" parent="1" vertex="1">
          <mxGeometry x="270" y="191" width="130" height="80" as="geometry" />
        </mxCell>
        <mxCell id="f_wLszosIwucmYi2b6Wq-17" style="edgeStyle=orthogonalEdgeStyle;rounded=0;orthogonalLoop=1;jettySize=auto;html=1;entryX=0.5;entryY=1;entryDx=0;entryDy=0;entryPerimeter=0;" parent="1" source="f_wLszosIwucmYi2b6Wq-3" target="f_wLszosIwucmYi2b6Wq-21" edge="1">
          <mxGeometry relative="1" as="geometry" />
        </mxCell>
        <mxCell id="f_wLszosIwucmYi2b6Wq-3" value="&lt;font style=&quot;font-size: 16px;&quot;&gt;checkout_events&lt;/font&gt;" style="ellipse;whiteSpace=wrap;html=1;fontSize=16;" parent="1" vertex="1">
          <mxGeometry x="270" y="367" width="130" height="80" as="geometry" />
        </mxCell>
        <mxCell id="f_wLszosIwucmYi2b6Wq-5" value="&lt;font style=&quot;font-size: 16px;&quot;&gt;FastAPI&lt;/font&gt;" style="text;html=1;align=center;verticalAlign=middle;resizable=0;points=[];autosize=1;strokeColor=none;fillColor=none;" parent="1" vertex="1">
          <mxGeometry x="40" y="156.5" width="80" height="30" as="geometry" />
        </mxCell>
        <mxCell id="f_wLszosIwucmYi2b6Wq-12" style="edgeStyle=orthogonalEdgeStyle;rounded=0;orthogonalLoop=1;jettySize=auto;html=1;entryX=0;entryY=0.5;entryDx=0;entryDy=0;" parent="1" source="f_wLszosIwucmYi2b6Wq-6" target="f_wLszosIwucmYi2b6Wq-2" edge="1">
          <mxGeometry relative="1" as="geometry" />
        </mxCell>
        <mxCell id="f_wLszosIwucmYi2b6Wq-6" value="" style="sketch=0;outlineConnect=0;fontColor=#232F3E;gradientColor=none;fillColor=#E7157B;strokeColor=none;dashed=0;verticalLabelPosition=bottom;verticalAlign=top;align=center;html=1;fontSize=12;fontStyle=0;aspect=fixed;pointerEvents=1;shape=mxgraph.aws4.endpoint;" parent="1" vertex="1">
          <mxGeometry x="96" y="192" width="78" height="78" as="geometry" />
        </mxCell>
        <mxCell id="f_wLszosIwucmYi2b6Wq-13" style="edgeStyle=orthogonalEdgeStyle;rounded=0;orthogonalLoop=1;jettySize=auto;html=1;entryX=0;entryY=0.5;entryDx=0;entryDy=0;" parent="1" source="f_wLszosIwucmYi2b6Wq-7" target="f_wLszosIwucmYi2b6Wq-3" edge="1">
          <mxGeometry relative="1" as="geometry" />
        </mxCell>
        <mxCell id="f_wLszosIwucmYi2b6Wq-7" value="" style="sketch=0;outlineConnect=0;fontColor=#232F3E;gradientColor=none;fillColor=#E7157B;strokeColor=none;dashed=0;verticalLabelPosition=bottom;verticalAlign=top;align=center;html=1;fontSize=12;fontStyle=0;aspect=fixed;pointerEvents=1;shape=mxgraph.aws4.endpoint;" parent="1" vertex="1">
          <mxGeometry x="96" y="368" width="78" height="78" as="geometry" />
        </mxCell>
        <mxCell id="f_wLszosIwucmYi2b6Wq-9" value="first_order endpoint" style="text;html=1;align=center;verticalAlign=middle;resizable=0;points=[];autosize=1;strokeColor=none;fillColor=none;fontSize=16;" parent="1" vertex="1">
          <mxGeometry x="55" y="278" width="160" height="30" as="geometry" />
        </mxCell>
        <mxCell id="f_wLszosIwucmYi2b6Wq-10" value="final_order endpoint" style="text;html=1;align=center;verticalAlign=middle;resizable=0;points=[];autosize=1;strokeColor=none;fillColor=none;fontSize=16;" parent="1" vertex="1">
          <mxGeometry x="55" y="460" width="160" height="30" as="geometry" />
        </mxCell>
        <mxCell id="f_wLszosIwucmYi2b6Wq-14" value="" style="dashed=0;outlineConnect=0;html=1;align=center;labelPosition=center;verticalLabelPosition=bottom;verticalAlign=top;shape=mxgraph.webicons.mongodb;gradientColor=#DFDEDE" parent="1" vertex="1">
          <mxGeometry x="605" y="160" width="70" height="78" as="geometry" />
        </mxCell>
        <mxCell id="f_wLszosIwucmYi2b6Wq-16" value="" style="dashed=0;outlineConnect=0;html=1;align=center;labelPosition=center;verticalLabelPosition=bottom;verticalAlign=top;shape=mxgraph.webicons.mongodb;gradientColor=#DFDEDE" parent="1" vertex="1">
          <mxGeometry x="605" y="400" width="70" height="78" as="geometry" />
        </mxCell>
        <mxCell id="f_wLszosIwucmYi2b6Wq-19" value="&lt;b&gt;MongoDB Collection:&lt;/b&gt; pizza_events collection" style="text;html=1;align=center;verticalAlign=middle;resizable=0;points=[];autosize=1;strokeColor=none;fillColor=none;fontSize=16;" parent="1" vertex="1">
          <mxGeometry x="460" y="130" width="360" height="30" as="geometry" />
        </mxCell>
        <mxCell id="f_wLszosIwucmYi2b6Wq-31" style="edgeStyle=orthogonalEdgeStyle;rounded=0;orthogonalLoop=1;jettySize=auto;html=1;exitX=1;exitY=0.25;exitDx=0;exitDy=0;exitPerimeter=0;" parent="1" source="f_wLszosIwucmYi2b6Wq-21" target="f_wLszosIwucmYi2b6Wq-14" edge="1">
          <mxGeometry relative="1" as="geometry" />
        </mxCell>
        <mxCell id="f_wLszosIwucmYi2b6Wq-32" style="edgeStyle=orthogonalEdgeStyle;rounded=0;orthogonalLoop=1;jettySize=auto;html=1;exitX=1;exitY=0.75;exitDx=0;exitDy=0;exitPerimeter=0;" parent="1" source="f_wLszosIwucmYi2b6Wq-21" target="f_wLszosIwucmYi2b6Wq-16" edge="1">
          <mxGeometry relative="1" as="geometry" />
        </mxCell>
        <mxCell id="f_wLszosIwucmYi2b6Wq-21" value="&lt;font style=&quot;font-size: 16px;&quot;&gt;consumer.py&lt;/font&gt;" style="points=[[0.25,0,0],[0.5,0,0],[0.75,0,0],[1,0.25,0],[1,0.5,0],[1,0.75,0],[0.75,1,0],[0.5,1,0],[0.25,1,0],[0,0.75,0],[0,0.5,0],[0,0.25,0]];shape=mxgraph.bpmn.task;whiteSpace=wrap;rectStyle=rounded;size=10;html=1;container=1;expand=0;collapsible=0;taskMarker=script;" parent="1" vertex="1">
          <mxGeometry x="460" y="280" width="120" height="78" as="geometry" />
        </mxCell>
        <mxCell id="f_wLszosIwucmYi2b6Wq-28" value="Kafka" style="text;html=1;align=center;verticalAlign=middle;resizable=0;points=[];autosize=1;strokeColor=none;fillColor=none;fontSize=16;" parent="1" vertex="1">
          <mxGeometry x="251" y="156.5" width="60" height="30" as="geometry" />
        </mxCell>
        <mxCell id="f_wLszosIwucmYi2b6Wq-34" value="PostgreSQL" style="strokeWidth=2;html=1;shape=mxgraph.flowchart.database;whiteSpace=wrap;fontSize=16;" parent="1" vertex="1">
          <mxGeometry x="680" y="278.5" width="100" height="81" as="geometry" />
        </mxCell>
        <mxCell id="f_wLszosIwucmYi2b6Wq-35" value="&lt;b&gt;MongoDB Collection:&lt;/b&gt; checkout_events collection" style="text;html=1;align=center;verticalAlign=middle;resizable=0;points=[];autosize=1;strokeColor=none;fillColor=none;fontSize=16;" parent="1" vertex="1">
          <mxGeometry x="450" y="478" width="380" height="30" as="geometry" />
        </mxCell>
        <mxCell id="f_wLszosIwucmYi2b6Wq-36" value="&lt;b&gt;&lt;font style=&quot;font-size: 35px;&quot;&gt;Data Pipeline&lt;/font&gt;&lt;/b&gt;" style="text;html=1;align=center;verticalAlign=middle;resizable=0;points=[];autosize=1;strokeColor=none;fillColor=none;" parent="1" vertex="1">
          <mxGeometry x="305" y="508" width="240" height="60" as="geometry" />
        </mxCell>
        <mxCell id="f_wLszosIwucmYi2b6Wq-37" style="edgeStyle=orthogonalEdgeStyle;rounded=0;orthogonalLoop=1;jettySize=auto;html=1;entryX=0;entryY=0.5;entryDx=0;entryDy=0;entryPerimeter=0;" parent="1" source="f_wLszosIwucmYi2b6Wq-21" target="f_wLszosIwucmYi2b6Wq-34" edge="1">
          <mxGeometry relative="1" as="geometry" />
        </mxCell>
        <mxCell id="j36ltJqeFkvEV_wU_qGL-6" value="&lt;font style=&quot;font-size: 16px;&quot;&gt;Topic 1&lt;/font&gt;" style="text;html=1;align=center;verticalAlign=middle;resizable=0;points=[];autosize=1;strokeColor=none;fillColor=none;" vertex="1" parent="1">
          <mxGeometry x="301" y="191" width="70" height="30" as="geometry" />
        </mxCell>
        <mxCell id="j36ltJqeFkvEV_wU_qGL-7" value="&lt;font style=&quot;font-size: 16px;&quot;&gt;Topic 2&lt;/font&gt;" style="text;html=1;align=center;verticalAlign=middle;resizable=0;points=[];autosize=1;strokeColor=none;fillColor=none;" vertex="1" parent="1">
          <mxGeometry x="303" y="367" width="70" height="30" as="geometry" />
        </mxCell>
      </root>
    </mxGraphModel>
  </diagram>
</mxfile>
